<?xml version="1.0" standalone="no"?>
<!DOCTYPE svg PUBLIC "-//W3C//DTD SVG 20010904//EN"
 "http://www.w3.org/TR/2001/REC-SVG-20010904/DTD/svg10.dtd">
<svg version="1.0" xmlns="http://www.w3.org/2000/svg"
 width="684.000000pt" height="684.000000pt" viewBox="0 0 684.000000 684.000000"
 preserveAspectRatio="xMidYMid meet">
<metadata>
Created by potrace 1.14, written by Peter Selinger 2001-2017
</metadata>
<g transform="translate(0.000000,684.000000) scale(0.100000,-0.100000)"
fill="#000000" stroke="none">
<path d="M3025 5247 c-88 -91 -230 -342 -350 -622 -26 -60 -55 -128 -65 -150
-31 -70 -204 -514 -205 -525 0 -6 -83 -226 -100 -265 -7 -16 -27 -70 -45 -120
-36 -98 -115 -271 -129 -279 -18 -12 -20 175 -6 534 4 107 7 202 8 210 0 8 4
21 10 28 6 8 6 12 -1 12 -6 0 -9 10 -6 23 3 18 11 154 18 297 1 19 5 41 9 48
5 6 5 12 0 12 -4 0 -7 44 -7 98 2 149 -3 170 -56 209 -25 18 -50 38 -57 43
-40 33 -87 -7 -170 -145 -81 -136 -228 -462 -337 -750 -31 -82 -61 -159 -66
-170 -13 -28 -71 -205 -124 -375 -24 -80 -48 -156 -52 -170 -4 -14 -9 -28 -10
-32 -1 -5 -2 -9 -4 -10 -1 -2 -3 -10 -5 -18 -2 -8 -13 -44 -23 -80 -103 -338
-196 -685 -208 -775 -3 -22 -7 -45 -9 -52 -8 -24 73 -90 99 -80 7 3 16 28 20
58 4 29 10 57 13 63 4 6 8 19 10 31 3 25 11 60 13 60 1 0 4 11 6 25 5 29 128
472 150 541 8 25 16 54 18 65 8 36 125 399 181 559 106 303 296 762 374 905
17 30 42 78 56 105 14 28 35 61 45 75 18 23 20 24 21 5 1 -11 1 -22 1 -25 0
-3 -3 -86 -7 -185 -3 -99 -8 -207 -10 -240 -4 -66 -13 -245 -20 -400 -9 -192
-5 -376 10 -480 1 -11 3 -27 4 -36 2 -30 110 -127 124 -112 4 3 7 1 7 -6 0 -7
5 -9 10 -6 6 3 10 1 10 -5 0 -7 6 -8 19 0 47 25 141 219 253 525 38 105 101
273 140 375 38 102 77 205 86 230 10 25 20 47 25 48 4 2 7 9 7 16 0 15 122
296 207 474 40 85 129 240 150 260 7 7 13 16 13 20 0 4 19 27 41 52 l42 45 -7
-75 c-7 -88 -12 -123 -32 -245 -23 -139 -24 -144 -44 -250 -20 -104 -114 -650
-124 -720 -4 -23 -9 -52 -11 -65 -4 -22 -29 -173 -40 -240 -2 -14 -7 -45 -11
-70 -4 -25 -8 -54 -10 -65 -1 -11 -9 -65 -18 -120 -8 -55 -17 -120 -20 -145
-3 -25 -12 -92 -20 -150 -8 -58 -18 -131 -21 -163 -4 -32 -8 -67 -10 -78 -2
-11 -7 -48 -10 -82 -3 -34 -8 -80 -11 -102 -10 -80 -13 -111 -19 -175 -3 -36
-8 -81 -10 -100 -5 -38 -11 -118 -29 -355 -13 -170 -17 -248 -21 -495 -2 -141
-1 -260 3 -266 7 -11 97 -74 106 -74 2 0 3 45 2 101 -1 55 1 102 6 105 5 3 5
11 0 17 -5 7 -8 20 -7 30 2 10 6 97 10 195 3 97 8 195 10 217 1 22 6 88 10
146 3 58 8 118 11 135 2 16 6 63 9 104 3 41 7 93 9 115 2 22 7 72 11 110 4 39
8 81 10 95 3 14 7 50 10 80 3 30 10 89 15 130 5 41 11 90 12 108 1 17 5 32 8
32 3 0 5 15 5 33 1 17 4 56 8 85 22 158 38 269 41 287 2 11 7 45 11 75 4 30 9
64 11 75 2 11 7 40 10 64 3 24 10 67 15 95 6 28 12 69 14 91 2 22 7 54 10 70
3 17 8 41 10 55 3 14 7 43 11 65 3 22 7 51 10 65 2 14 8 52 14 85 5 33 12 70
14 81 2 12 7 37 10 55 11 62 32 180 40 216 2 11 8 43 12 70 5 26 9 50 9 53 1
3 5 25 9 50 5 25 10 54 12 65 6 28 13 69 19 108 3 17 10 57 15 87 13 76 18
116 25 180 12 114 12 141 3 188 -8 39 -16 52 -42 67 -17 10 -44 29 -59 42 -45
37 -74 30 -132 -30z"/>
<path d="M4823 4427 c-21 -11 -109 -102 -130 -134 l-15 -23 -31 31 c-29 29
-33 31 -106 28 -59 -2 -81 -7 -98 -22 -13 -11 -23 -25 -23 -30 0 -6 -16 -25
-35 -44 -34 -33 -37 -43 -37 -123 0 -74 3 -112 8 -107 4 3 20 -1 36 -9 37 -19
45 -13 43 33 -1 21 2 48 6 61 5 12 5 22 0 22 -4 0 -6 12 -3 26 3 17 14 29 33
36 18 6 32 19 35 34 3 13 9 24 13 25 3 0 14 2 23 4 12 2 23 -8 34 -31 9 -19
21 -35 28 -35 58 -6 98 -2 115 11 10 8 46 47 80 87 33 39 69 72 78 72 10 -1
95 2 188 6 94 3 211 7 261 9 l91 3 54 -65 c30 -35 57 -69 61 -75 3 -6 15 -11
25 -12 10 0 24 -4 31 -9 6 -4 12 -4 12 1 0 13 222 10 245 -4 19 -11 20 -22 19
-341 -1 -181 -4 -346 -8 -366 -6 -31 -12 -38 -39 -43 -18 -4 -36 -6 -41 -5 -5
2 -4 -4 4 -12 7 -9 23 -16 36 -16 25 0 63 31 65 53 3 31 -2 684 -6 702 -2 11
-4 23 -4 27 -2 19 -55 32 -146 34 -55 1 -114 2 -131 3 -27 1 -38 11 -88 86
-32 46 -65 87 -74 89 -10 3 -46 8 -82 12 -36 3 -68 8 -72 10 -4 2 -9 0 -13 -6
-4 -6 -10 -8 -14 -6 -4 3 -84 8 -177 11 -93 4 -184 8 -201 9 -18 1 -40 -2 -50
-7z"/>
<path d="M5446 4069 c-29 -22 -35 -64 -13 -92 19 -25 71 -30 97 -9 30 25 31
81 0 101 -34 23 -55 23 -84 0z"/>
<path d="M5001 4057 c-6 -6 -11 -8 -11 -4 0 4 -13 1 -30 -8 -16 -9 -30 -13
-30 -11 0 9 -66 -39 -97 -71 -31 -32 -64 -88 -57 -96 11 -11 72 30 99 67 34
45 125 98 174 100 17 0 31 4 31 9 0 4 6 5 13 0 6 -4 26 -8 42 -9 70 -2 139
-36 199 -98 28 -28 42 -42 33 -30 -9 11 -17 24 -17 28 0 16 -80 86 -117 102
-55 25 -60 26 -144 29 -48 3 -80 0 -88 -8z"/>
<path d="M4321 3853 c-6 -13 -11 -28 -11 -34 0 -28 -63 -169 -76 -169 -7 0
-25 10 -40 23 -14 12 -47 34 -73 49 l-48 26 -56 -23 c-85 -34 -144 -102 -192
-220 -26 -64 -30 -69 -71 -97 -39 -28 -116 -69 -120 -65 -1 1 6 43 15 92 19
96 19 101 7 183 -7 45 -15 60 -57 102 -67 66 -129 93 -194 88 -55 -5 -145 -42
-145 -60 0 -6 -3 -9 -6 -6 -8 9 -71 -57 -113 -120 -56 -84 -73 -136 -70 -212
2 -36 -1 -99 -5 -142 -10 -93 1 -132 52 -186 39 -41 116 -87 132 -77 5 3 11 1
15 -4 4 -7 15 -7 33 0 15 6 27 10 27 8 0 -1 22 9 48 21 27 13 77 51 110 84 68
68 79 74 186 111 40 13 80 30 87 36 12 9 14 2 14 -40 0 -78 23 -112 112 -171
32 -21 66 -36 80 -34 12 1 28 3 34 3 25 2 104 85 155 163 30 46 57 85 62 86 4
2 7 9 7 17 0 7 6 18 14 24 11 9 12 2 5 -42 -5 -28 -11 -70 -14 -92 -3 -22 -8
-51 -10 -65 -3 -14 -7 -41 -10 -60 -5 -31 -19 -116 -30 -175 -7 -41 -46 -131
-128 -290 -183 -361 -206 -410 -239 -530 -10 -38 -21 -77 -23 -85 -30 -112
-38 -215 -21 -269 17 -52 94 -115 152 -125 38 -7 69 23 112 109 29 58 76 185
86 235 3 14 21 86 39 160 18 74 34 138 34 143 1 4 6 31 12 60 6 28 12 63 15
77 2 14 19 95 36 180 18 85 33 162 35 171 2 9 13 35 24 56 20 41 220 342 243
368 7 8 18 20 23 27 91 119 114 147 139 171 39 37 40 54 8 75 -15 9 -29 20
-32 23 -3 4 -16 10 -30 14 -29 7 -45 -6 -106 -82 -21 -26 -41 -50 -44 -53 -3
-3 -41 -53 -83 -112 -69 -95 -106 -133 -92 -95 4 11 14 73 31 187 2 19 7 46 9
60 32 170 44 258 51 372 6 80 4 99 -9 112 -9 9 -20 16 -26 16 -6 0 -11 4 -11
9 0 5 -11 11 -24 13 -18 4 -27 -1 -35 -19z m-785 -138 c23 -22 19 -139 -7
-240 -15 -60 -88 -202 -107 -211 -23 -10 -122 -21 -122 -14 0 3 -15 4 -34 2
-25 -3 -39 2 -54 18 -18 20 -19 24 -5 68 31 100 45 158 45 185 -1 21 14 44 56
88 31 32 63 59 69 59 7 0 13 4 13 9 0 12 80 50 108 51 13 0 30 -7 38 -15z
m655 -87 c17 -31 13 -84 -9 -120 -10 -18 -36 -64 -57 -103 -64 -119 -135 -218
-183 -257 -37 -30 -48 -35 -52 -22 -12 33 3 176 23 223 6 14 11 33 12 41 7 58
88 176 157 229 55 41 90 44 109 9z m-949 -420 c14 -10 31 -18 36 -18 5 0 21
-6 35 -13 l25 -13 -23 -19 c-27 -24 -83 -53 -109 -57 -14 -2 -21 5 -27 26 -5
16 -6 32 -4 36 2 3 5 25 6 47 3 45 10 46 61 11z m834 -913 c-10 -71 -62 -260
-104 -380 -44 -125 -95 -226 -100 -200 -4 19 25 186 39 222 5 13 11 34 13 46
11 51 142 357 153 357 3 0 2 -20 -1 -45z"/>
<path d="M5078 3834 c-2 -2 -13 -5 -24 -7 -36 -6 -169 -49 -178 -58 -6 -5 -18
-9 -28 -9 -10 0 -18 -4 -18 -9 0 -5 -12 -14 -27 -20 -28 -12 -113 -81 -113
-92 0 -3 25 -23 55 -43 l55 -37 25 27 c14 15 25 24 25 20 0 -3 9 3 20 14 23
23 181 99 223 106 4 1 8 2 10 4 1 1 10 3 20 5 22 4 22 -6 -3 -38 -11 -14 -20
-29 -20 -34 0 -4 -13 -22 -28 -40 -15 -17 -37 -44 -49 -60 -38 -49 -52 -65
-293 -323 -47 -50 -100 -120 -100 -131 0 -16 92 -79 115 -79 9 0 50 20 93 44
85 48 283 150 294 150 3 1 10 4 14 9 4 4 16 7 26 7 10 0 18 5 18 10 0 6 8 10
18 10 10 0 22 4 28 8 11 11 150 62 183 68 13 3 34 10 45 16 12 6 22 10 24 9 1
-1 24 1 50 5 26 5 55 8 64 9 32 0 27 12 -18 45 -49 35 -66 37 -168 24 -27 -3
-60 -10 -74 -15 -13 -5 -28 -7 -33 -3 -5 3 -9 0 -9 -5 0 -6 -9 -11 -19 -11
-10 0 -38 -9 -62 -19 -24 -11 -47 -17 -51 -15 -4 3 -8 0 -8 -5 0 -6 -5 -11
-11 -11 -10 0 -61 -22 -141 -60 -21 -10 -38 -15 -38 -12 0 4 25 34 56 67 30
33 65 71 77 85 69 76 151 207 158 255 4 28 -15 60 -56 90 -32 25 -118 58 -127
49z"/>
</g>
</svg>
