<?xml version="1.0" standalone="no"?>
<!DOCTYPE svg PUBLIC "-//W3C//DTD SVG 20010904//EN"
 "http://www.w3.org/TR/2001/REC-SVG-20010904/DTD/svg10.dtd">
<svg version="1.0" xmlns="http://www.w3.org/2000/svg"
 width="263.000000pt" height="263.000000pt" viewBox="0 0 263.000000 263.000000"
 preserveAspectRatio="xMidYMid meet">
<metadata>
Created by potrace 1.14, written by Peter Selinger 2001-2017
</metadata>
<g transform="translate(0.000000,263.000000) scale(0.100000,-0.100000)"
fill="#000000" stroke="none">
<path d="M1110 2148 c-17 -24 -37 -50 -44 -59 -8 -9 -17 -27 -21 -40 -4 -13
-10 -26 -14 -29 -3 -3 -15 -25 -27 -50 -11 -25 -36 -76 -54 -115 -19 -38 -34
-74 -34 -80 -1 -10 -66 -181 -91 -240 -7 -16 -16 -41 -20 -54 -4 -13 -14 -40
-23 -60 -9 -20 -17 -43 -19 -51 -5 -28 -50 -112 -55 -104 -6 11 -2 187 7 329
18 274 13 338 -27 350 -10 4 -18 11 -18 16 0 16 -54 -20 -66 -44 -6 -12 -29
-57 -51 -99 -22 -42 -38 -79 -35 -83 3 -3 1 -5 -4 -5 -6 0 -21 -30 -34 -67
-13 -38 -27 -73 -31 -79 -5 -6 -17 -37 -28 -70 -10 -32 -28 -84 -39 -114 -21
-58 -36 -114 -30 -116 2 0 -2 -7 -8 -15 -6 -8 -28 -72 -48 -144 -21 -71 -40
-137 -44 -145 -3 -8 -6 -18 -7 -22 -2 -5 -3 -9 -4 -10 -2 -2 -4 -14 -6 -28 -3
-14 -11 -54 -19 -90 -12 -59 -12 -67 3 -87 10 -12 22 -18 27 -15 8 7 11 14 19
52 10 47 47 189 55 210 6 14 13 36 16 50 6 28 9 38 16 60 7 19 41 131 44 145
1 6 11 35 22 65 10 30 20 58 20 63 1 4 10 28 22 54 11 25 22 55 24 67 5 27 18
60 25 66 4 3 12 23 19 45 18 54 120 263 132 270 9 5 7 -93 -5 -335 -14 -275
-4 -327 66 -343 21 -5 28 -1 44 26 29 47 111 252 148 367 6 19 16 38 22 42 5
4 7 8 3 8 -4 0 14 48 39 108 25 59 52 125 61 147 9 22 29 62 44 88 15 26 28
50 28 53 0 3 16 26 35 52 l36 46 -7 -69 c-4 -39 -7 -82 -8 -97 -1 -16 -3 -28
-6 -28 -3 0 -7 -14 -8 -31 -1 -18 -5 -36 -9 -42 -3 -5 -7 -24 -9 -41 -1 -17
-5 -44 -8 -61 -6 -28 -11 -57 -22 -130 -5 -34 -22 -127 -29 -165 -3 -13 -7
-40 -10 -60 -3 -20 -8 -47 -11 -60 -5 -26 -12 -84 -19 -155 -2 -22 -4 -40 -5
-40 -1 0 -3 -11 -5 -25 -6 -60 -18 -147 -21 -165 -4 -19 -13 -115 -20 -190 -6
-86 -17 -294 -18 -378 -1 -73 2 -92 17 -108 28 -30 39 -23 37 24 -1 23 -1 44
0 47 0 3 3 59 5 125 3 65 7 144 10 175 3 30 8 92 10 137 3 45 7 94 9 110 3 15
7 47 10 71 3 23 9 61 12 85 5 44 10 71 18 122 6 32 15 108 21 165 2 19 6 46
10 60 3 14 8 41 11 60 5 34 7 45 18 105 12 61 18 101 31 190 1 11 3 20 5 20 1
0 3 9 5 20 1 11 5 36 9 55 21 112 27 156 30 212 3 58 1 65 -27 90 -40 39 -62
35 -97 -14z"/>
<path d="M1918 1751 c-27 -31 -36 -36 -44 -25 -12 18 -53 24 -79 12 -31 -15
-55 -54 -60 -98 -4 -38 4 -52 33 -56 11 -2 17 22 13 54 -1 8 9 24 22 38 24 24
24 24 42 4 25 -28 58 -19 100 27 34 37 37 38 107 40 40 1 73 2 73 3 0 1 23 2
50 4 46 1 53 -1 82 -34 19 -21 42 -36 58 -38 16 -1 24 2 19 9 -3 6 -15 9 -25
6 -11 -3 -19 0 -19 7 0 6 -12 26 -27 44 l-28 32 -141 5 -141 5 -35 -39z"/>
<path d="M2350 1692 c0 -4 9 -8 20 -9 11 -1 20 2 20 5 0 4 -9 8 -20 9 -11 1
-20 -2 -20 -5z"/>
<path d="M2418 1683 c7 -3 16 -2 19 1 4 3 -2 6 -13 5 -11 0 -14 -3 -6 -6z"/>
<path d="M2435 1641 c-3 -5 -2 -12 3 -15 5 -3 9 1 9 9 0 17 -3 19 -12 6z"/>
<path d="M2245 1622 c-6 -4 -12 -17 -12 -29 -2 -19 3 -23 27 -23 34 0 41 8 33
38 -5 22 -28 28 -48 14z"/>
<path d="M2024 1608 c-3 -5 -9 -6 -13 -3 -13 7 -82 -65 -75 -77 5 -7 18 1 37
22 47 53 131 69 184 35 12 -8 25 -15 28 -15 9 0 -17 23 -43 38 -25 14 -110 14
-118 0z"/>
<path d="M1714 1485 c-9 -25 -21 -48 -25 -51 -4 -2 -24 5 -45 16 -32 18 -41
20 -66 9 -27 -11 -66 -59 -96 -119 -7 -14 -29 -33 -48 -43 -22 -11 -32 -13
-27 -5 11 18 16 64 14 116 -1 27 -43 69 -86 87 -25 11 -36 11 -63 -1 -46 -19
-100 -72 -107 -106 -4 -15 -10 -28 -13 -28 -4 0 -7 -37 -7 -82 0 -64 4 -89 18
-110 18 -25 58 -46 85 -42 6 1 18 2 25 3 6 1 30 17 52 37 39 35 108 73 133 74
6 0 12 -10 12 -22 1 -27 16 -49 51 -72 35 -22 70 -13 100 27 13 18 27 37 31
42 5 6 14 18 21 28 11 16 12 15 12 -8 0 -14 -2 -25 -5 -25 -4 0 -6 -10 -6 -22
-1 -57 -15 -122 -35 -165 -12 -27 -23 -50 -24 -53 -5 -16 -41 -86 -46 -90 -12
-9 -87 -194 -94 -230 -12 -67 -13 -126 -1 -141 6 -9 24 -24 40 -34 l29 -19 33
39 c19 21 32 40 30 42 -2 2 5 32 16 66 11 34 22 73 24 87 3 14 9 39 14 55 5
17 11 48 14 70 7 50 15 95 22 117 3 9 7 27 9 40 6 30 35 87 58 112 9 11 17 26
17 33 0 7 4 13 8 13 5 0 23 21 40 48 17 26 45 62 63 80 26 27 31 37 22 50 -19
31 -44 26 -84 -18 -22 -24 -39 -45 -39 -47 0 -10 -42 -63 -49 -63 -9 0 -7 20
9 100 6 30 12 69 14 85 17 131 17 132 1 149 -25 24 -32 20 -51 -29z m-348 -65
c1 -49 -24 -131 -47 -155 -12 -13 -34 -20 -64 -21 l-45 -2 4 37 c3 20 5 37 7
39 3 4 6 21 8 40 2 38 75 100 114 98 18 -1 22 -7 23 -36z m292 -2 c18 -18 15
-41 -13 -82 -13 -20 -22 -36 -19 -36 7 0 -34 -59 -64 -92 -29 -32 -41 -29 -37
9 7 85 29 137 77 182 37 35 39 36 56 19z m-412 -209 c6 -5 13 -8 15 -6 2 1 -3
-4 -11 -11 -8 -8 -23 -18 -32 -23 -18 -10 -20 -7 -20 26 0 8 0 19 1 25 1 10
28 3 47 -11z m359 -450 c-6 -28 -24 -88 -35 -114 -5 -11 -16 -41 -26 -67 -9
-27 -18 -48 -21 -48 -4 0 7 92 14 102 2 5 6 16 8 27 2 10 13 42 25 70 23 52
42 69 35 30z"/>
<path d="M2040 1506 c-48 -15 -113 -51 -130 -71 -12 -15 -11 -19 10 -35 24
-18 25 -18 45 0 23 22 113 62 128 57 14 -4 -70 -106 -195 -237 -35 -35 -35
-53 -3 -70 23 -12 35 -9 147 47 109 54 182 85 213 89 47 6 75 18 66 27 -6 6
-18 12 -26 14 -8 2 -23 5 -32 6 -25 5 -111 -16 -150 -36 -18 -10 -45 -22 -60
-28 l-27 -10 19 23 c11 13 25 28 31 33 6 6 30 37 52 69 l42 59 -20 27 c-26 37
-65 49 -110 36z"/>
<path d="M2435 1501 c-3 -5 -2 -12 3 -15 5 -3 9 1 9 9 0 17 -3 19 -12 6z"/>
<path d="M2435 1394 c1 -26 -4 -52 -11 -59 -7 -7 -10 -15 -7 -18 3 -3 11 0 18
7 13 13 18 116 5 116 -3 0 -5 -21 -5 -46z"/>
</g>
</svg>
